<svg xmlns="http://www.w3.org/2000/svg" id="Layer_1" data-name="Layer 1" viewBox="0 0 60.83 37.87"><defs><style>.cls-1{fill:#721314}.cls-2{fill:#caaa71}</style></defs><path class="cls-1" d="M35.14 8.63c-.07-.94-.54-1.77-1.45-2.55l-.31-.26.15.38c1.06 2.69.59 3.38-3.36 7.97l-.14.15c-.97 1.04-3.24 3.48-3.07 5.94.07 1.08.61 2.05 1.61 2.87l.13-.15S28 22.3 28 21c0-1.16.54-3.1 3.21-5.71l.59-.68c1.71-1.95 3.49-3.97 3.34-5.98z"></path><path class="cls-1" d="m29.47 13.54.59-.68c1.71-1.95 3.49-3.97 3.34-5.98-.07-.94-.54-1.77-1.45-2.55l-.31-.26.15.38c1.06 2.69.59 3.38-3.36 7.97l-.14.15c-.97 1.04-3.24 3.48-3.07 5.94.07 1.08.61 2.05 1.61 2.87l.13-.15s-.7-.68-.7-1.98c0-1.16.54-3.1 3.21-5.71z"></path><path class="cls-1" d="m27.72 11.8.59-.68c1.71-1.95 3.49-3.97 3.34-5.98-.05-.72-.34-1.38-.89-1.99A5.592 5.592 0 0 0 25.75 0c-3.07 0-5.57 2.5-5.57 5.57a5.59 5.59 0 0 0 4.12 5.37.784.784 0 0 0 .62.32c.13 0 .26-.03.38-.1.36-.21.49-.68.28-1.04a.764.764 0 0 0-1.39.16c-2-.66-3.4-2.57-3.4-4.71 0-2.74 2.23-4.96 4.96-4.96 1.89 0 3.64 1.1 4.46 2.79l.23.53c.41 1.83-.46 2.94-3.75 6.76l-.14.15c-.97 1.04-3.24 3.48-3.07 5.94.07 1.08.61 2.05 1.61 2.87l.13-.15s-.7-.68-.7-1.98c0-1.16.54-3.1 3.21-5.71z"></path><g><path class="cls-2" d="M.17 19.02h5.74c1.81 0 3.11.57 3.89 1.72.44.67.66 1.46.66 2.38 0 1.67-.68 2.9-2.04 3.7-.82.45-1.78.68-2.87.68H4.23v2.04c0 1.01.25 1.61.74 1.81.11.04.23.08.36.11.1.03.16.08.17.15-.03.1-.08.16-.15.17H.17c-.1-.03-.16-.08-.17-.17.03-.08.08-.13.17-.15.57-.07.91-.37 1.02-.89.06-.24.08-.58.08-1.02v-8.29c0-.93-.18-1.52-.53-1.74a1.82 1.82 0 0 0-.57-.17c-.1-.04-.16-.09-.17-.15.03-.1.08-.16.17-.17zm4.06.32v7.84c1.1 0 1.98-.52 2.61-1.57.42-.74.64-1.56.66-2.49 0-1.47-.47-2.55-1.42-3.23-.51-.37-1.13-.55-1.85-.55zM14.72 23.54c1.15 0 2.07.34 2.76 1.02.1.1.18.19.25.28.44.57.57 1.15.38 1.74-.21.58-.69.92-1.44 1.02-.44.06-1.08.13-1.93.23h-.08l-.02.02h-.17l-.02.02h-.15l-.02.02h-.17l-.02.02h-.15l-.02.02h-.15l-.02.02h-.17c.24 1.13.83 1.9 1.76 2.29.85.35 1.62.3 2.32-.17.28-.2.51-.44.68-.72.14-.2.25-.29.32-.28.06.06.08.12.08.19-.5 1.74-1.82 2.61-3.97 2.61-1.3 0-2.38-.45-3.23-1.34-.42-.47-.72-1-.89-1.59-.08-.24-.14-.51-.17-.81-.16-1.77.34-3.06 1.49-3.87.72-.5 1.64-.74 2.76-.74zm-.02.32c-.57 0-.96.47-1.19 1.42-.2.82-.2 1.61 0 2.38 1.64-.2 2.45-.81 2.42-1.85v-.19c-.1-1.02-.41-1.59-.93-1.72-.1-.03-.2-.04-.3-.04z"></path><path class="cls-2" d="M22.48 19.06c.06-.04.12-.05.19-.02.04.04.06.09.06.15v10.35c0 1.01.25 1.61.74 1.81.11.04.23.08.36.11.1.03.16.08.17.15-.03.1-.08.16-.15.17h-5.18c-.1-.03-.16-.08-.17-.17.03-.08.08-.13.17-.15.57-.07.91-.37 1.02-.89.06-.25.08-.59.08-1.02v-6.57c0-1.23-.3-1.94-.89-2.12-.06-.01-.11-.03-.15-.04-.11-.04-.18-.1-.19-.17.03-.08.09-.13.19-.15 1.32-.04 2.53-.5 3.63-1.36.04-.03.08-.05.11-.06zM28.6 23.58c.1-.08.18-.08.23.02.01.04.02.08.02.11v5.82c0 1.01.25 1.61.74 1.81.11.04.23.08.36.11.1.03.16.08.17.15-.03.1-.08.16-.15.17h-5.18c-.1-.03-.16-.08-.17-.17.03-.08.08-.13.17-.15.57-.07.91-.37 1.02-.89.06-.25.08-.59.08-1.02V27.5c0-1.23-.3-1.94-.89-2.12-.06-.01-.11-.03-.15-.04-.11-.04-.17-.1-.17-.17.01-.09.07-.13.17-.15 1.32-.04 2.53-.5 3.63-1.36.04-.03.08-.05.11-.06zM34.46 23.54c1.36 0 2.31.4 2.85 1.19.41.65.43 1.36.06 2.12-.25.5-.69.73-1.3.7-.57-.03-.94-.28-1.13-.74-.01-.04-.03-.08-.04-.11-.11-.38.01-.72.38-1.02.3-.24.47-.43.51-.57.03-.07.04-.13.04-.19-.01-.45-.23-.77-.66-.96-.17-.07-.35-.11-.53-.11-.61 0-1.08.4-1.42 1.19-.3.75-.38 1.61-.23 2.57.18 1.19.7 2.05 1.55 2.59.41.25.84.38 1.27.38.82 0 1.47-.36 1.93-1.08.07-.11.13-.22.17-.32.04-.08.11-.12.19-.11.08.03.13.09.13.19-.27 1.01-.96 1.75-2.06 2.23-.61.25-1.25.39-1.93.4-1.3-.01-2.38-.47-3.23-1.36-.62-.68-.98-1.48-1.06-2.4-.14-1.56.31-2.77 1.36-3.63.79-.65 1.84-.98 3.14-.98zM42.47 23.54c2.56-.1 4.02.9 4.36 3l.32 2.74c.18 1.1.52 1.71 1.02 1.81.04.01.11.01.19 0h.15c.11 0 .16.06.15.17-.01.06-.04.1-.08.13-.61.35-1.28.53-2.02.53-1.05-.01-1.76-.37-2.12-1.06 0 .06-.14.18-.42.38-.62.44-1.37.66-2.25.66-1.39 0-2.29-.4-2.7-1.21-.13-.28-.19-.59-.19-.91 0-1.09.55-1.8 1.64-2.12.11-.03.72-.13 1.83-.32.38-.07.68-.16.89-.25.42-.18.62-.52.57-1.02 0-.07 0-.13-.02-.19-.13-1.05-.5-1.69-1.1-1.91-.14-.06-.28-.08-.42-.08-.58 0-.89.24-.91.72v.04c-.01.18.12.4.4.64.31.27.44.57.38.89-.07.44-.37.72-.89.83-.55.11-.99-.03-1.32-.42-.1-.14-.17-.29-.21-.45-.21-.81.04-1.47.74-1.98.52-.35 1.2-.55 2.04-.6zm1.42 3.4c-.14.2-.33.35-.55.47-.61.38-.96.61-1.04.68-.42.38-.64.84-.64 1.38 0 .79.33 1.32.98 1.57.52.2.96.14 1.32-.17.24-.2.34-.46.3-.79l-.36-3.14zM53.14 23.52s.06 0 .08.02c.04.04.06.09.06.15v.79c.52-.61 1.23-.91 2.1-.91 2.05.01 3.24 1.01 3.57 2.97l.34 3c.13 1.01.45 1.61.96 1.81.13.04.25.08.38.11.11.03.18.08.19.15-.01.1-.07.16-.17.17h-5.14c-.11-.03-.18-.08-.19-.17.03-.08.09-.13.19-.15.51-.07.79-.35.85-.83.04-.25.04-.62-.02-1.08L56 26.26c-.18-1.43-.67-2.14-1.44-2.12-.07.01-.13.02-.17.02-.57.07-.91.52-1.02 1.36-.06.38-.08.93-.08 1.64v2.4c0 1.01.25 1.61.74 1.81.11.04.23.08.36.11.1.03.16.08.17.15-.03.1-.08.16-.15.17h-5.18c-.1-.03-.16-.08-.17-.17.03-.08.08-.13.17-.15.57-.07.91-.37 1.02-.89.06-.25.08-.59.08-1.02v-2.04c0-.96-.13-1.58-.4-1.85a1.46 1.46 0 0 0-.64-.34c-.11-.06-.17-.11-.17-.17.01-.09.07-.14.17-.17 1.32-.03 2.53-.47 3.63-1.34.04-.03.08-.05.11-.06.04-.03.08-.04.11-.04z"></path></g><g><path class="cls-2" d="M12.14 35.94v.92h-.59v-3.13h1.48c1.54 0 1.54 2.19 0 2.22h-.89zm0-.54h.89c.75 0 .75-1.11 0-1.11h-.89v1.11z"></path><path class="cls-2" d="m15.07 34.65.04.26c.16-.27.4-.31.62-.31s.45.09.57.21l-.25.47a.546.546 0 0 0-.39-.14c-.29 0-.55.15-.55.56v1.16h-.55v-2.21h.51zM18.71 35.76c0 .64-.44 1.16-1.16 1.16s-1.16-.52-1.16-1.16.45-1.16 1.15-1.16 1.16.53 1.16 1.16zm-1.76 0c0 .33.2.65.6.65s.6-.32.6-.65-.23-.65-.6-.65c-.39 0-.6.32-.6.65zM19.16 37.87v-3.22h.51l.04.3c.17-.25.47-.35.72-.35.68 0 1.13.51 1.13 1.16s-.41 1.16-1.11 1.16c-.24 0-.57-.08-.73-.32v1.27h-.55zm1.85-2.11c0-.34-.23-.63-.63-.63s-.63.28-.63.63.25.63.63.63.63-.29.63-.63zM22.44 35.96c.04.27.27.47.66.47.2 0 .46-.08.59-.21l.35.34c-.24.24-.61.36-.95.36-.76 0-1.21-.47-1.21-1.18s.46-1.16 1.17-1.16 1.2.46 1.11 1.37h-1.72zm1.2-.45c-.04-.29-.26-.43-.57-.43-.3 0-.53.14-.62.43h1.19zM25.12 34.65l.04.26c.16-.27.4-.31.62-.31s.45.09.57.21l-.25.47a.546.546 0 0 0-.39-.14c-.29 0-.55.15-.55.56v1.16h-.55v-2.21h.51zM27.43 34.03v.64h.61v.47h-.61v.97c0 .21.11.31.29.31.09 0 .18-.03.26-.07l.15.47c-.16.07-.29.09-.45.09-.48.02-.79-.25-.79-.81v-.97h-.41v-.47h.41v-.58l.55-.06zM30.69 34.65l-1.39 3.22h-.6l.45-1.05-.88-2.17h.64l.34.95.21.62.23-.61.4-.97h.6zM33.56 33.73c.62 0 1.08.28 1.08.91 0 .25-.12.47-.41.6.37.11.5.51.5.7 0 .7-.52.92-1.17.92h-1.49v-3.13h1.49zm-.9 1.26h.9c.37 0 .49-.16.49-.34 0-.14-.12-.39-.49-.39h-.9v.72zm0 1.33h.9c.24 0 .59-.08.59-.38s-.35-.43-.59-.43h-.9v.81zM35.71 34.65v1.18c0 .34.18.59.53.59s.56-.28.56-.62v-1.16h.54v2.22h-.49l-.04-.28c-.23.23-.44.33-.75.33-.52 0-.91-.4-.91-1.08v-1.19h.55zM38.21 33.71c.16 0 .32.11.32.32s-.16.32-.32.32-.32-.1-.32-.32.16-.32.32-.32zm.27.93v2.22h-.55v-2.22h.55zM39.63 33.73v3.13h-.54v-3.13h.54zM42.5 33.73v3.13h-.51l-.04-.3c-.17.29-.44.37-.71.37-.64 0-1.14-.44-1.14-1.17 0-.76.48-1.16 1.12-1.16.23 0 .59.12.73.35v-1.22h.55zm-1.85 2.02c0 .39.28.65.63.65s.64-.25.64-.65c0-.38-.3-.64-.64-.64s-.63.25-.63.64zM43.53 35.96c.04.27.27.47.66.47.2 0 .46-.08.59-.21l.35.34c-.24.24-.61.36-.95.36-.76 0-1.21-.47-1.21-1.18s.46-1.16 1.17-1.16 1.2.46 1.11 1.37h-1.72zm1.2-.45c-.04-.29-.26-.43-.57-.43-.3 0-.53.14-.62.43h1.19zM46.2 34.65l.04.26c.16-.27.4-.31.62-.31s.45.09.57.21l-.25.47a.546.546 0 0 0-.39-.14c-.29 0-.55.15-.55.56v1.16h-.55v-2.21h.51zM49.11 35.24a.796.796 0 0 0-.55-.2c-.26 0-.4.08-.4.22s.14.22.41.24c.42.02.94.13.94.7 0 .39-.32.73-.95.73-.35 0-.69-.06-1.02-.39l.27-.39c.21.22.51.3.76.31.21 0 .4-.08.4-.24 0-.15-.12-.23-.44-.25-.41-.04-.91-.18-.91-.69s.53-.69.93-.69c.34 0 .6.07.86.29l-.3.36z"></path></g></svg>